<svg id="Capa_1" data-name="Capa 1" xmlns="http://www.w3.org/2000/svg" viewBox="0 0 974 967"><defs><style>.cls-1{fill:#070707;}.cls-2{fill:#f66;}.cls-3{fill:#d67;}.cls-4{fill:#9933fb;}.cls-5{fill:#39008d;}.cls-6{fill:#fff;}</style></defs><title>LogoGif1x1</title><polygon class="cls-1" points="0 456.51 241.57 0 916.25 345.69 857.54 455.56 974 515.23 739.16 967 63.52 623.2 119.34 516.17 0 456.51"/><polygon class="cls-2" points="667.27 773.99 28.51 447.22 250.03 27.89 888.79 354.65 667.27 773.99"/><polygon class="cls-3" points="665.56 773.75 117 493.12 293.56 158.91 842.12 439.53 665.56 773.75"/><polygon class="cls-4" points="725.89 941.95 87.13 615.19 308.65 195.85 947.41 522.62 725.89 941.95"/><path class="cls-5" d="M529.53,610.15q6.83,0,9.47,1c1.75.64,2.64,2,2.64,4.18s-1.6,4.43-4.8,6.83a11.83,11.83,0,0,0-4.8,10v12a9,9,0,0,0,3.82,7.64q3.82,2.79,3.82,5,0,6-17.13,15.26T479.4,687.87a206,206,0,0,1-50.11,6.53q-61.07,0-105-30.31t-43.94-80.65q0-29.36,17.91-54.6t49.81-39.41Q380,475.27,419.7,475.27q38.57,0,71.44,10.49T524,509.17v11.74a22.87,22.87,0,0,0,1,5.36,25.64,25.64,0,0,1,1,6.68,7.41,7.41,0,0,1-1.86,5.06,6.3,6.3,0,0,1-5,2.13,11,11,0,0,1-6.26-2q-2.94-2-8.62-10.93Q493.47,510.49,481.71,503q-20.56-13.06-57.2-13.07-46.44,0-74.36,25.38T322.23,581.9q0,46.94,30.21,72.38t77.88,25.44a138.67,138.67,0,0,0,45.9-7.37Q497.4,665,497.4,650.82V631.11q0-7.15-18-7.16-3.13,0-9.69.29t-9.3.3q-7.44,0-11.55-2.23t-4.11-5.78q0-6.37,11.33-6.38Z" transform="translate(-14 -13)"/><path class="cls-5" d="M614.84,667.4q0,7.19,3.52,9.39a22.4,22.4,0,0,0,9.39,2.86,28,28,0,0,1,8.32,1.85c1.63.8,2.45,2.43,2.45,4.91q0,4.9-11.38,4.91-4.9,0-14.72-.88t-14.52-.88a115.74,115.74,0,0,0-13.73,1.17,113.88,113.88,0,0,1-13.54,1.18,14.93,14.93,0,0,1-7.75-1.93q-3.24-1.93-3.24-5.06a4.18,4.18,0,0,1,1.76-3.34c1.18-.94,4.18-1.71,9-2.29s8.18-1.76,10.08-3.52,2.83-6,2.83-12.75V613.51c0-4.2-1.17-7-3.52-8.35s-5.81-2.4-10.37-3.08-7.41-1.57-8.52-2.66a5.41,5.41,0,0,1-1.66-4q0-2.67,2.85-4.38a12.92,12.92,0,0,1,6.77-1.71,59,59,0,0,1,9.53,1.1,57.28,57.28,0,0,0,9.14,1.1,98.77,98.77,0,0,0,10.21-.8A96.25,96.25,0,0,1,608,589.9q7.26,0,7.27,9.1c0,1-.07,2.27-.2,3.89s-.19,2.71-.19,3.3ZM598.89,540a25.09,25.09,0,0,1,15.48,4.9q6.54,4.89,6.53,11.61,0,6-6.43,10.15a27.3,27.3,0,0,1-15.19,4.17,25,25,0,0,1-15.11-4.6q-6.33-4.61-6.33-11,0-6.13,6.33-10.67A24.73,24.73,0,0,1,598.89,540Z" transform="translate(-14 -13)"/><path class="cls-5" d="M685.1,547.92q0-16.44,4.51-26.93t15.22-19.52a110.7,110.7,0,0,1,24.63-15.56q13.93-6.53,18.06-6.53c1.84,0,2.75,1.94,2.75,5.82q0,.75-3.71,3-17.43,9.82-23.88,24a74.89,74.89,0,0,0-6.46,31.37v47.63c0,1.18,1,1.76,3.13,1.76q1.36,0,6.65-.44t10.18-.44q11.36,0,11.35,5.8,0,2.82-3.72,4.45A21.53,21.53,0,0,1,735,604q-18.79,0-18.79,11.38v50.8q0,7.29,1.76,9a38.25,38.25,0,0,0,4.6,3.65c1.89,1.32,5.94,2.26,12.13,2.85s10,1.37,11.45,2.36a4.51,4.51,0,0,1,2.16,3.87q0,5.8-11.38,5.8a120.48,120.48,0,0,1-16.77-1.47,139.32,139.32,0,0,0-20.1-1.47,149.6,149.6,0,0,0-17.75,1.47q-11.48,1.47-14.42,1.47-12.36,0-12.36-6.4a4.11,4.11,0,0,1,1.77-3.42q1.76-1.33,10.17-2.14t12.33-2.77c2.61-1.31,4.14-3,4.6-5s.69-6.21.69-12.63V614.5q0-10.51-17.42-10.51-13.5,0-13.5-6.39,0-5.79,13.7-5.79c3.26,0,6.39.14,9.39.44s4.83.44,5.48.44c1.57,0,2.35-.59,2.35-1.76Z" transform="translate(-14 -13)"/><path class="cls-6" d="M540.46,603.05c4.56,0,7.71.32,9.47,1s2.64,2,2.64,4.18-1.6,4.43-4.8,6.83A11.84,11.84,0,0,0,543,625.07v12a9,9,0,0,0,3.82,7.64q3.81,2.79,3.81,5,0,6-17.12,15.26t-43.16,15.78a206,206,0,0,1-50.1,6.53q-61.07,0-105-30.31t-43.94-80.65q0-29.36,17.91-54.6T359,482.33q31.9-14.16,71.63-14.16,38.56,0,71.44,10.49T535,502.07v11.74a22.87,22.87,0,0,0,1,5.36,25.64,25.64,0,0,1,1,6.68,7.41,7.41,0,0,1-1.86,5.06,6.29,6.29,0,0,1-5,2.13,11,11,0,0,1-6.26-2q-2.94-2-8.62-10.93-10.78-16.74-22.53-24.22-20.58-13.07-57.21-13.07-46.44,0-74.36,25.38T333.17,574.8q0,46.94,30.2,72.38t77.88,25.44a138.58,138.58,0,0,0,45.9-7.37q21.18-7.37,21.19-21.53V624q0-7.15-18-7.16-3.13,0-9.69.29t-9.3.3q-7.44,0-11.54-2.23t-4.11-5.78q0-6.37,11.33-6.38Z" transform="translate(-14 -13)"/><path class="cls-6" d="M625.77,660.29q0,7.2,3.52,9.4a22.4,22.4,0,0,0,9.4,2.86A28,28,0,0,1,647,674.4q2.44,1.19,2.45,4.91,0,4.91-11.38,4.91-4.91,0-14.71-.88t-14.52-.88a115.87,115.87,0,0,0-13.74,1.17,116.08,116.08,0,0,1-13.54,1.18,14.93,14.93,0,0,1-7.75-1.93c-2.16-1.29-3.23-3-3.23-5.06a4.15,4.15,0,0,1,1.76-3.34c1.17-.94,4.17-1.71,9-2.29s8.19-1.76,10.08-3.52,2.84-6,2.84-12.75V606.41c0-4.2-1.18-7-3.53-8.35s-5.8-2.4-10.37-3.08-7.41-1.57-8.51-2.66a5.42,5.42,0,0,1-1.67-4q0-2.67,2.85-4.38a12.93,12.93,0,0,1,6.78-1.71,59,59,0,0,1,9.52,1.1,58.63,58.63,0,0,0,9.14,1.1,96.44,96.44,0,0,0,10.21-.81,98.57,98.57,0,0,1,10.21-.8q7.27,0,7.27,9.1c0,1-.07,2.27-.2,3.89s-.19,2.71-.19,3.3Zm-15.95-127.4a25.14,25.14,0,0,1,15.49,4.9q6.53,4.89,6.53,11.61,0,6-6.44,10.15a27.28,27.28,0,0,1-15.19,4.17,25,25,0,0,1-15.1-4.6q-6.33-4.61-6.33-11,0-6.14,6.33-10.67A24.68,24.68,0,0,1,609.82,532.89Z" transform="translate(-14 -13)"/><path class="cls-6" d="M696,540.82q0-16.44,4.52-26.93t15.21-19.52a110.77,110.77,0,0,1,24.64-15.56q13.94-6.53,18.06-6.53,2.74,0,2.75,5.82,0,.75-3.72,3-17.43,9.82-23.88,24a74.89,74.89,0,0,0-6.46,31.37v47.63c0,1.18,1,1.76,3.13,1.76q1.37,0,6.66-.44t10.18-.44q11.34,0,11.35,5.79c0,1.89-1.24,3.37-3.72,4.46a21.78,21.78,0,0,1-8.81,1.64q-18.8,0-18.79,11.38v50.8q0,7.29,1.76,9a39.06,39.06,0,0,0,4.6,3.65q2.84,2,12.14,2.85t11.45,2.36a4.52,4.52,0,0,1,2.15,3.87q0,5.79-11.38,5.8a120.36,120.36,0,0,1-16.76-1.47A139.57,139.57,0,0,0,711,683.63a149.92,149.92,0,0,0-17.75,1.47q-11.47,1.47-14.41,1.47-12.36,0-12.36-6.4a4.12,4.12,0,0,1,1.76-3.42q1.75-1.34,10.18-2.14t12.33-2.77q3.91-2,4.6-5t.68-12.62V607.4q0-10.51-17.42-10.51-13.5,0-13.5-6.39,0-5.79,13.7-5.79c3.26,0,6.39.14,9.39.44s4.83.44,5.48.44c1.57,0,2.35-.59,2.35-1.77Z" transform="translate(-14 -13)"/></svg>