<svg xmlns="http://www.w3.org/2000/svg" viewBox="0 0 1384.67 1021"><defs><style>.cls-1{fill:#070707;}.cls-2{fill:#f66;}.cls-3{fill:#d67;}.cls-4{fill:#9933fb;}.cls-5{fill:#39008d;}.cls-6{fill:#fff;}</style></defs><title>LogoGif</title><g id="Capa_1" data-name="Capa 1"><polygon class="cls-1" points="0 482 251 0 952 365 891 481 1012 544 768 1021 66 658 124 545 0 482"/><rect class="cls-2" x="674.05" y="78.33" width="499" height="748" transform="translate(-350.77 1034.13) rotate(-62.53)"/><rect class="cls-3" x="746.41" y="200.18" width="397.71" height="642.38" transform="translate(-400.33 1090.6) rotate(-62.53)"/><rect class="cls-4" x="734.95" y="255.67" width="499" height="748" transform="translate(-475.31 1183.72) rotate(-62.53)"/><path class="cls-5" d="M982.64,659.5q7.1,0,9.84,1t2.74,4.41q0,3.42-5,7.21a12.59,12.59,0,0,0-5,10.62v12.7a9.5,9.5,0,0,0,4,8.06c2.65,2,4,3.72,4,5.27q0,6.36-17.8,16.12t-44.84,16.66a210.86,210.86,0,0,1-52.06,6.89q-63.43,0-109.1-32t-45.65-85.16q0-31,18.61-57.64T794.1,532q33.15-15,74.43-15,40.07,0,74.22,11.08t34.17,24.72v12.4a24.24,24.24,0,0,0,1,5.65,27.81,27.81,0,0,1,1,7.06,7.92,7.92,0,0,1-1.93,5.34,6.5,6.5,0,0,1-5.19,2.25,11.31,11.31,0,0,1-6.5-2.09q-3.06-2.1-9-11.55Q945.18,554.27,933,546.37q-21.37-13.79-59.44-13.79-48.24,0-77.25,26.79t-29,70.3q0,49.56,31.39,76.42T879.56,733a142,142,0,0,0,47.69-7.79q22-7.78,22-22.74v-20.8q0-7.56-18.71-7.56-3.25,0-10.06.31c-4.55.21-7.76.31-9.66.31-5.16,0-9.15-.78-12-2.35s-4.27-3.6-4.27-6.11q0-6.74,11.77-6.73Z" transform="translate(-447 -29)"/><path class="cls-5" d="M1071.28,719.94q0,7.59,3.66,9.92a23.09,23.09,0,0,0,9.76,3c4.06.46,6.94,1.12,8.64,2s2.54,2.57,2.54,5.18q0,5.19-11.82,5.19-5.1,0-15.29-.93t-15.09-.93a117.44,117.44,0,0,0-14.27,1.24,117,117,0,0,1-14.06,1.24,15.27,15.27,0,0,1-8.06-2q-3.36-2-3.36-5.34a4.45,4.45,0,0,1,1.83-3.53q1.83-1.49,9.35-2.42t10.48-3.71q2.94-2.78,3-13.46V663q0-6.64-3.66-8.82T1024.1,651q-7.12-1.08-8.85-2.8a5.78,5.78,0,0,1-1.73-4.24,5.33,5.33,0,0,1,3-4.63,13.31,13.31,0,0,1,7-1.81,59.62,59.62,0,0,1,9.9,1.17,59.92,59.92,0,0,0,9.49,1.16,98.33,98.33,0,0,0,10.61-.85,99,99,0,0,1,10.61-.86q7.56,0,7.55,9.61c0,1-.07,2.4-.2,4.11s-.2,2.87-.2,3.49Zm-16.57-134.52a25.82,25.82,0,0,1,16.09,5.17q6.78,5.17,6.78,12.26,0,6.33-6.68,10.72a28.1,28.1,0,0,1-15.79,4.4,25.65,25.65,0,0,1-15.69-4.86q-6.59-4.86-6.58-11.65c0-4.31,2.19-8.07,6.58-11.25A25.29,25.29,0,0,1,1054.71,585.42Z" transform="translate(-447 -29)"/><path class="cls-5" d="M1144.28,593.79q0-17.35,4.69-28.43t15.81-20.62a115.15,115.15,0,0,1,25.6-16.42q14.47-6.9,18.76-6.9,2.86,0,2.86,6.15c0,.52-1.29,1.58-3.86,3.15q-18.11,10.37-24.81,25.38a80.12,80.12,0,0,0-6.71,33.12v50.29c0,1.24,1.08,1.86,3.25,1.86q1.43,0,6.91-.47t10.58-.46q11.79,0,11.79,6.12c0,2-1.29,3.56-3.86,4.7a22.17,22.17,0,0,1-9.15,1.73q-19.53,0-19.52,12v53.63q0,7.71,1.83,9.48a40.28,40.28,0,0,0,4.77,3.85q3,2.09,12.61,3c6.44.61,10.41,1.45,11.9,2.49a4.8,4.8,0,0,1,2.24,4.08q0,6.13-11.82,6.13a124,124,0,0,1-17.43-1.55,141.82,141.82,0,0,0-20.89-1.55,152.19,152.19,0,0,0-18.44,1.55q-11.92,1.54-15,1.55-12.86,0-12.85-6.75a4.34,4.34,0,0,1,1.84-3.61q1.83-1.43,10.57-2.27t12.81-2.92q4.07-2.08,4.78-5.24t.71-13.33V664.09q0-11.1-18.1-11.1-14,0-14-6.74,0-6.12,14.24-6.12c3.38,0,6.64.15,9.76.46s5,.47,5.69.47c1.63,0,2.44-.62,2.44-1.86Z" transform="translate(-447 -29)"/><path class="cls-6" d="M994,652q7.1,0,9.84,1c1.83.67,2.74,2.15,2.74,4.42s-1.66,4.67-5,7.2a12.6,12.6,0,0,0-5,10.62V688a9.48,9.48,0,0,0,4,8c2.65,2,4,3.72,4,5.27q0,6.36-17.8,16.12t-44.84,16.66a210.41,210.41,0,0,1-52.06,6.9q-63.44,0-109.1-32T735.1,623.8q0-31,18.61-57.65t51.75-41.61q33.15-15,74.43-15,40.07,0,74.22,11.09t34.17,24.71v12.4a24.3,24.3,0,0,0,1,5.66,27.67,27.67,0,0,1,1,7,7.88,7.88,0,0,1-1.93,5.34,6.49,6.49,0,0,1-5.18,2.25,11.32,11.32,0,0,1-6.51-2.09q-3.06-2.1-9-11.55-11.19-17.66-23.41-25.57-21.37-13.79-59.44-13.79-48.24,0-77.25,26.79t-29,70.3q0,49.56,31.38,76.42t80.92,26.87a141.78,141.78,0,0,0,47.69-7.79q22-7.77,22-22.73V674.13q0-7.56-18.71-7.56-3.25,0-10.06.31t-9.66.31c-5.16,0-9.15-.78-12-2.35s-4.27-3.6-4.27-6.11q0-6.72,11.77-6.73Z" transform="translate(-447 -29)"/><path class="cls-6" d="M1082.64,712.44q0,7.59,3.66,9.92a23,23,0,0,0,9.76,3c4.07.47,6.94,1.12,8.64,2s2.54,2.56,2.54,5.18q0,5.19-11.82,5.18-5.1,0-15.29-.93t-15.09-.93a117.44,117.44,0,0,0-14.27,1.24,117,117,0,0,1-14.06,1.24,15.25,15.25,0,0,1-8.06-2q-3.36-2-3.36-5.33a4.42,4.42,0,0,1,1.83-3.53c1.22-1,4.34-1.8,9.35-2.42s8.51-1.86,10.48-3.71,3-6.35,3-13.46V655.54q0-6.64-3.66-8.81t-10.78-3.25c-4.75-.73-7.7-1.66-8.85-2.81a5.76,5.76,0,0,1-1.73-4.24q0-2.82,3-4.63a13.28,13.28,0,0,1,7-1.8,59.39,59.39,0,0,1,9.9,1.16,59.92,59.92,0,0,0,9.49,1.16,98.33,98.33,0,0,0,10.61-.85,98.33,98.33,0,0,1,10.61-.85q7.56,0,7.55,9.6c0,1-.07,2.41-.2,4.11s-.2,2.87-.2,3.49Zm-16.57-134.51a25.84,25.84,0,0,1,16.09,5.16q6.78,5.17,6.78,12.27,0,6.32-6.68,10.72a28.09,28.09,0,0,1-15.79,4.39,25.65,25.65,0,0,1-15.69-4.86q-6.58-4.86-6.58-11.64,0-6.48,6.58-11.26A25.28,25.28,0,0,1,1066.07,577.93Z" transform="translate(-447 -29)"/><path class="cls-6" d="M1155.64,586.29q0-17.34,4.69-28.43t15.81-20.61a114.83,114.83,0,0,1,25.6-16.43q14.48-6.9,18.76-6.9,2.87,0,2.86,6.15,0,.79-3.86,3.15-18.11,10.37-24.81,25.38a80.16,80.16,0,0,0-6.71,33.12V632c0,1.24,1.08,1.86,3.25,1.86q1.43,0,6.91-.46t10.58-.47q11.79,0,11.79,6.12,0,3-3.86,4.71a22.33,22.33,0,0,1-9.15,1.72q-19.53,0-19.52,12v53.63q0,7.71,1.83,9.48a40.28,40.28,0,0,0,4.77,3.85q3,2.09,12.61,3t11.9,2.5a4.77,4.77,0,0,1,2.24,4.08q0,6.12-11.82,6.12a124,124,0,0,1-17.43-1.55,143.17,143.17,0,0,0-20.88-1.55,154.26,154.26,0,0,0-18.45,1.55q-11.93,1.54-15,1.55-12.85,0-12.85-6.75a4.34,4.34,0,0,1,1.84-3.61q1.83-1.41,10.57-2.26t12.81-2.93c2.71-1.39,4.3-3.13,4.78-5.24s.71-6.55.71-13.33V656.59q0-11.1-18.1-11.1-14,0-14-6.74,0-6.12,14.24-6.12c3.38,0,6.64.16,9.76.47s5,.46,5.69.46c1.63,0,2.44-.62,2.44-1.86Z" transform="translate(-447 -29)"/><text x="-447" y="-29"/></g></svg>